<?xml version="1.0" encoding="utf-8"?>
<!-- Generator: Adobe Illustrator 23.0.3, SVG Export Plug-In . SVG Version: 6.00 Build 0)  -->
<svg version="1.1" id="Layer_1" xmlns="http://www.w3.org/2000/svg" xmlns:xlink="http://www.w3.org/1999/xlink" x="0px" y="0px"
	 viewBox="0 0 44.25 53.9" style="enable-background:new 0 0 44.25 53.9;" xml:space="preserve">
<style type="text/css">
	.st0{fill:#F94E67;}
	.st1{fill:#019790;}
	.st2{fill:none;}
</style>
<g>
	<g>
		<path class="st0" d="M5.41,52.04C5.9,36.28,7.87,20.67,11.32,5.28c-1.24,0-2.47,0-3.71,0c6.15,15.22,8.58,31.61,14.91,46.77
			c0.39,0.93,1.27,1.69,2.36,1.34c4.83-1.56,10.46-4.42,11.91-9.73c1.19-4.35-0.9-8.35-3.97-11.33c-4.03-3.9-9.65-5.08-8.37-12.14
			c1.67-9.24,11.23-12.88,18.8-16.17c2.26-0.98,0.31-4.3-1.94-3.32c-9.57,4.16-25.91,12.93-19.88,26.32
			c1.67,3.7,5.05,4.81,7.95,7.35c2.2,1.93,4.23,4.33,3.83,7.44c-0.56,4.41-5.59,6.66-9.33,7.86c0.79,0.45,1.58,0.89,2.36,1.34
			c-6.34-15.15-8.77-31.55-14.91-46.77c-0.64-1.6-3.25-2.04-3.71,0C4.09,19.98,2.06,35.94,1.56,52.04
			C1.49,54.52,5.33,54.52,5.41,52.04L5.41,52.04z"/>
	</g>
</g>
<g>
	<g>
		<path class="st1" d="M3.84,52.04C4.34,36.28,6.31,20.67,9.76,5.28c-1.24,0-2.47,0-3.71,0c6.15,15.22,8.58,31.61,14.91,46.77
			c0.39,0.93,1.27,1.69,2.36,1.34c4.83-1.56,10.46-4.42,11.91-9.73c1.19-4.35-0.9-8.35-3.97-11.33c-4.03-3.9-9.65-5.08-8.37-12.14
			C24.53,11.11,34.1,6.82,41.61,3.5c2.26-1,0.3-4.31-1.94-3.32c-9.54,4.22-25.72,13.71-19.8,26.84c1.67,3.7,5.05,4.81,7.95,7.35
			c2.2,1.93,4.23,4.33,3.83,7.44c-0.56,4.41-5.59,6.66-9.33,7.86c0.79,0.45,1.58,0.89,2.36,1.34C18.33,35.87,15.9,19.48,9.76,4.26
			c-0.64-1.6-3.25-2.04-3.71,0C2.53,19.98,0.5,35.94,0,52.04C-0.08,54.52,3.77,54.52,3.84,52.04L3.84,52.04z"/>
	</g>
</g>
<g>
	<path class="st2" d="M1.92,52.04C2.36,36.14,4.36,20.28,7.9,4.77c6.36,15.31,8.25,31.28,14.91,46.77
		c3.64-1.05,8.72-3.76,10.17-7.26c3.67-8.8-8.61-14.24-9.86-15.66c-4.18-4.74-2.3-11.74,1.7-16.63s10.02-7.6,15.8-10.15"/>
</g>
</svg>
