<svg enable-background="new 0 0 44.25 53.9" viewBox="0 0 44.25 53.9" xmlns="http://www.w3.org/2000/svg"><path d="m5.41 52.04c.49-15.76 2.46-31.37 5.91-46.76-1.24 0-2.47 0-3.71 0 6.15 15.22 8.58 31.61 14.91 46.77.39.93 1.27 1.69 2.36 1.34 4.83-1.56 10.46-4.42 11.91-9.73 1.19-4.35-.9-8.35-3.97-11.33-4.03-3.9-9.65-5.08-8.37-12.14 1.67-9.24 11.23-12.88 18.8-16.17 2.26-.98.31-4.3-1.94-3.32-9.57 4.16-25.91 12.93-19.88 26.32 1.67 3.7 5.05 4.81 7.95 7.35 2.2 1.93 4.23 4.33 3.83 7.44-.56 4.41-5.59 6.66-9.33 7.86.79.45 1.58.89 2.36 1.34-6.34-15.15-8.77-31.55-14.91-46.77-.64-1.6-3.25-2.04-3.71 0-3.53 15.74-5.56 31.7-6.06 47.8-.07 2.48 3.77 2.48 3.85 0z" fill="#f94e67"/><path d="m3.84 52.04c.5-15.76 2.47-31.37 5.92-46.76-1.24 0-2.47 0-3.71 0 6.15 15.22 8.58 31.61 14.91 46.77.39.93 1.27 1.69 2.36 1.34 4.83-1.56 10.46-4.42 11.91-9.73 1.19-4.35-.9-8.35-3.97-11.33-4.03-3.9-9.65-5.08-8.37-12.14 1.64-9.08 11.21-13.37 18.72-16.69 2.26-1 .3-4.31-1.94-3.32-9.54 4.22-25.72 13.71-19.8 26.84 1.67 3.7 5.05 4.81 7.95 7.35 2.2 1.93 4.23 4.33 3.83 7.44-.56 4.41-5.59 6.66-9.33 7.86.79.45 1.58.89 2.36 1.34-6.35-15.14-8.78-31.53-14.92-46.75-.64-1.6-3.25-2.04-3.71 0-3.52 15.72-5.55 31.68-6.05 47.78-.08 2.48 3.77 2.48 3.84 0z" fill="#019790"/><path d="m1.92 52.04c.44-15.9 2.44-31.76 5.98-47.27 6.36 15.31 8.25 31.28 14.91 46.77 3.64-1.05 8.72-3.76 10.17-7.26 3.67-8.8-8.61-14.24-9.86-15.66-4.18-4.74-2.3-11.74 1.7-16.63s10.02-7.6 15.8-10.15" fill="none"/></svg>